<svg width="72" height="77" viewBox="0 0 72 77" fill="none" xmlns="http://www.w3.org/2000/svg">
<circle cx="35.9283" cy="37.883" r="32.9469" fill="#F9494D"/>
<path d="M20.9646 0.13501C22.0554 -0.224904 23.1564 0.16944 24.1489 0.904605C25.1458 1.6434 26.1886 2.83173 27.2837 4.39956C28.3502 5.92643 29.1587 6.72021 29.7055 6.99783C29.9478 7.12081 30.0438 7.09407 30.0585 7.08961C30.0771 7.0839 30.1908 7.04298 30.348 6.77895C31.3288 5.13276 32.583 4.03067 34.1607 3.78529C35.6106 3.56033 37.0095 3.89288 38.3193 4.72434C39.4712 5.45564 40.5593 6.17117 41.5883 6.86368C42.7047 7.61501 43.6843 8.57066 44.5255 9.72318C44.5956 9.81927 44.6378 9.82591 44.6596 9.82909C44.713 9.837 44.8719 9.83398 45.168 9.69494C45.7761 9.40862 46.6451 8.70376 47.7874 7.45676C48.3865 6.80289 48.9474 6.26453 49.4678 5.85402C49.9806 5.44976 50.5002 5.13368 51.0141 4.97852C51.5477 4.81772 52.1374 4.81876 52.6663 5.14091C53.1665 5.44635 53.4625 5.94903 53.6406 6.46829C53.8527 7.08767 54.161 7.34473 54.5161 7.4497C54.9373 7.57353 55.6186 7.54249 56.6484 7.15316C57.2563 6.92358 57.8566 6.78098 58.4065 6.82131C58.9994 6.86493 59.5463 7.12845 59.8962 7.66857C60.2125 8.15744 60.2889 8.75881 60.2634 9.34192C60.237 9.93984 60.0993 10.6328 59.875 11.4036C59.4585 12.8351 59.3435 13.8419 59.4302 14.489C59.4721 14.8014 59.5577 14.9842 59.635 15.0892C59.704 15.1823 59.7942 15.254 59.9456 15.301C61.4017 15.7512 62.5989 16.5233 63.483 17.638C64.0878 18.4007 65.1118 19.0636 66.6814 19.5514C67.6193 19.8427 68.4156 20.2837 68.9972 20.9141C69.5902 21.5573 69.9146 22.3474 69.9786 23.237C70.0826 24.6819 70.0841 26.1088 69.9857 27.5157C69.8911 28.8692 69.8192 30.1706 69.7739 31.4201C69.7375 32.4252 70.0898 33.4473 70.9247 34.4985C71.4168 35.1184 71.8249 35.8106 71.8355 36.5108C71.8409 36.8983 71.7241 37.2759 71.4684 37.591C71.2248 37.8907 70.8973 38.0814 70.5717 38.2053C70.5247 38.2233 70.4921 38.236 70.4729 38.2476C70.4756 38.2996 70.4919 38.4111 70.5717 38.5936C70.657 38.7883 70.8 39.033 71.0095 39.3279C71.3086 39.7492 71.5209 40.2319 71.5319 40.7612C71.5429 41.3105 71.3363 41.7977 70.9953 42.1945C70.3648 42.9269 69.2329 43.4257 67.8605 43.8043C67.2327 43.9773 66.7971 44.168 66.519 44.3479C66.2415 44.5276 66.1847 44.6553 66.173 44.6939C66.1653 44.7195 66.1381 44.8175 66.2577 45.0469C66.3845 45.2898 66.6456 45.6126 67.0909 46.0142C69.0981 47.8252 70.4155 49.6585 70.8753 51.5214C71.1277 52.5445 70.9854 53.54 70.2328 54.2891C69.5466 54.9721 68.4931 55.3007 67.2886 55.4329C65.0662 55.677 63.8833 56.2351 63.3771 56.8662C62.9026 57.4597 62.6831 58.6178 63.1441 60.6577C63.3991 61.7874 63.436 62.833 63.1017 63.7008C62.7447 64.6262 62.0195 65.2219 61.0612 65.4942C60.12 65.7614 59.0636 65.6765 57.9475 65.3459C56.8295 65.0144 55.5914 64.419 54.2408 63.5878C53.6234 63.2078 53.2127 63.0647 52.9769 63.0371C52.9176 63.0302 52.882 63.0276 52.864 63.03C52.8184 63.1032 52.7289 63.35 52.7439 63.9267C52.7589 64.4945 52.8766 65.2637 53.1111 66.2426C53.5935 68.2577 53.7916 69.8844 53.5418 70.9661C53.4109 71.531 53.1169 72.1092 52.518 72.4135C51.9343 72.7093 51.2929 72.6201 50.7458 72.4276C50.0294 72.1753 49.531 72.2211 49.1642 72.4064C48.7779 72.6018 48.3711 73.0393 48.0063 73.8891C47.7693 74.4417 47.4464 74.9488 46.9896 75.28C46.4898 75.6419 45.902 75.7403 45.3163 75.5836C44.7784 75.4396 44.2832 75.0953 43.8336 74.6728C43.3746 74.2414 42.9043 73.6669 42.4215 72.9783C41.5182 71.6903 40.7785 70.9419 40.2115 70.606C39.9389 70.4448 39.7511 70.4073 39.6396 70.4083C39.544 70.4093 39.4403 70.4418 39.3078 70.5495C38.172 71.4725 36.9425 72.3231 35.6292 73.0983C34.4082 73.8195 33.0256 74.817 31.4847 76.1061C31.0242 76.4912 30.436 76.8246 29.769 76.7557C29.0531 76.6806 28.579 76.1842 28.2863 75.6613C27.9951 75.1406 27.798 74.4545 27.6579 73.6632C27.5155 72.8587 27.4163 71.8822 27.3685 70.7472C27.323 69.6711 27.2111 68.9059 27.0507 68.4102C26.8786 67.8798 26.7323 67.8829 26.8107 67.9089C26.9013 67.9374 26.8024 67.8439 26.3659 68.1842C25.9618 68.4994 25.4389 69.0629 24.8055 69.9282C24.14 70.8371 23.5362 71.576 22.9909 72.124C22.4659 72.6515 21.9118 73.0896 21.3529 73.2748C21.0569 73.3725 20.7118 73.4103 20.3574 73.3101C19.9936 73.207 19.7132 72.9844 19.5172 72.7171C19.1604 72.2296 19.0235 71.5394 18.9735 70.846C18.8826 69.5913 18.6111 68.8974 18.3169 68.5655C18.0948 68.3158 17.7676 68.1689 17.1095 68.3184C16.5667 68.4414 15.9609 68.4632 15.4291 68.1772C14.8568 67.8686 14.5799 67.3214 14.483 66.7651C14.3901 66.2285 14.4398 65.6016 14.5748 64.9364C14.7124 64.2588 14.9552 63.4749 15.2809 62.5923C15.5843 61.7696 15.6864 61.2208 15.6762 60.8978C15.6738 60.8215 15.6554 60.7729 15.648 60.7424C15.5493 60.7267 15.288 60.7173 14.7654 60.8836C14.1712 61.0728 13.3864 61.4323 12.4002 61.9921C10.378 63.14 8.73109 63.8579 7.54254 63.9832C6.94202 64.0464 6.26537 63.9778 5.75623 63.5172C5.23532 63.0454 5.11987 62.3747 5.15608 61.7733C5.26634 59.9414 5.19194 58.3859 4.95133 57.0992C4.7238 55.8848 4.20586 54.8586 3.39802 53.9996C3.03388 53.612 2.81424 53.1338 2.77669 52.5946C2.74119 52.0743 2.88149 51.5629 3.1156 51.0837C3.5753 50.1434 4.4834 49.1327 5.72798 48.0618C6.30855 47.5623 6.71435 47.1392 6.96357 46.7909C7.21971 46.4324 7.25925 46.232 7.26012 46.1625C7.26032 46.151 7.27645 46.1132 7.16127 46.0213C7.01198 45.9024 6.70693 45.7541 6.16574 45.6259C4.90806 45.3285 3.85015 44.9337 3.04499 44.4115C2.23187 43.884 1.62903 43.196 1.38577 42.3216C1.10103 41.2966 1.52223 40.376 2.26127 39.6456C2.97948 38.9368 4.08945 38.2991 5.48793 37.711C6.12363 37.4434 6.47615 37.2052 6.63879 37.0332C6.67713 36.9923 6.69187 36.9591 6.70233 36.9415C6.67073 36.8741 6.55376 36.6927 6.1728 36.419C5.76144 36.1236 5.14815 35.7893 4.30176 35.4305C2.54655 34.6866 1.21423 33.9327 0.538508 33.1217C0.182242 32.6936 -0.0821751 32.1344 0.0230912 31.4978C0.125459 30.8812 0.54085 30.4301 0.990381 30.1069C2.47213 29.0432 4.0802 28.1617 5.81271 27.4733C6.47636 27.2097 6.61671 26.9335 6.64585 26.739C6.68788 26.4511 6.56933 25.9053 5.96098 25.0233C4.62137 23.0825 3.99802 21.1825 4.71127 19.5373C5.17089 18.4799 6.21351 18.0906 7.33072 18.0546C8.44138 18.0193 9.86054 18.3062 11.5388 18.8524C12.3268 19.1089 12.8337 19.18 13.1203 19.156C13.1595 19.1527 13.1893 19.1395 13.2121 19.1348C13.2196 19.0248 13.2132 18.7647 13.0356 18.2805C12.8249 17.7061 12.4437 16.9533 11.8636 16.0141C11.259 15.0354 10.8146 14.2085 10.5574 13.55C10.4296 13.2227 10.3302 12.8961 10.2961 12.5898C10.2641 12.301 10.2718 11.8918 10.5221 11.5307C10.8039 11.1256 11.234 10.9922 11.5811 10.98C11.9065 10.9688 12.2418 11.0507 12.5414 11.1565C13.1495 11.3713 13.9111 11.7877 14.8007 12.3568C16.5371 13.4676 17.8228 14.1183 18.6911 14.369C19.1286 14.4952 19.3706 14.4892 19.4748 14.4678H19.4889C19.6423 14.1185 19.7542 13.4073 19.7219 12.2085C19.6901 11.0321 19.5223 9.49947 19.2136 7.59797C18.8957 5.64063 18.821 4.02181 19.037 2.79682C19.2528 1.57375 19.8155 0.515682 20.9646 0.13501ZM21.5294 1.85071C21.2955 1.92822 20.9802 2.18167 20.8163 3.10748C20.6528 4.03447 20.6932 5.42019 20.9999 7.30849C21.315 9.24922 21.4945 10.87 21.5294 12.1591C21.5631 13.4134 21.4627 14.4809 21.127 15.2233C20.8758 15.7782 20.4082 16.1224 19.8349 16.24C19.3178 16.3455 18.7492 16.2673 18.1898 16.1059C17.0604 15.7797 15.5936 15.0124 13.8264 13.8818C13.1937 13.4771 12.6854 13.2057 12.3013 13.0275C12.5107 13.5237 12.8613 14.2029 13.3957 15.068C14.0057 16.0555 14.4599 16.9224 14.7301 17.6592C14.9856 18.3558 15.148 19.1052 14.9349 19.7562C14.8179 20.1122 14.5925 20.4173 14.2712 20.6317C13.963 20.8364 13.6112 20.9278 13.2757 20.9565C12.6245 21.0117 11.8385 20.8541 10.981 20.5752C9.36597 20.0495 8.18286 19.8366 7.3872 19.8621C6.60126 19.8874 6.43023 20.1208 6.37049 20.2575C6.04723 21.0031 6.19938 22.1795 7.45075 23.9925C8.13628 24.9858 8.57537 26.0192 8.43216 27.0003C8.27438 28.0728 7.48151 28.7568 6.48346 29.1537C4.88416 29.7891 3.40163 30.5927 2.0424 31.5684C1.88017 31.6849 1.82641 31.7652 1.8094 31.7943C1.82078 31.7255 1.76485 31.766 1.92943 31.9638C2.29838 32.4066 3.25304 33.0205 5.00781 33.7642C5.91434 34.1485 6.66081 34.5455 7.22481 34.9504C7.76582 35.3389 8.26075 35.8233 8.44628 36.4402C8.66041 37.1549 8.39757 37.7974 7.94498 38.2759C7.52661 38.7178 6.90808 39.0739 6.18692 39.3773C4.86392 39.9336 4.00663 40.4624 3.53217 40.9306C3.08168 41.3755 3.07906 41.6505 3.12972 41.8344C3.22259 42.1687 3.47061 42.5323 4.0264 42.8935C4.59198 43.2603 5.42814 43.5964 6.57525 43.8678C7.23528 44.0239 7.83605 44.2527 8.28389 44.6092C8.7648 44.9921 9.07531 45.5288 9.06761 46.1837C9.06017 46.7807 8.78863 47.3444 8.43216 47.8429C8.06734 48.3528 7.54632 48.8815 6.90709 49.4315C5.71605 50.4563 5.03512 51.2715 4.73951 51.8744C4.59692 52.1664 4.56931 52.3625 4.57712 52.4746C4.58398 52.5675 4.61848 52.6579 4.71833 52.7641C5.77017 53.8832 6.44196 55.2255 6.73058 56.7674C7.0057 58.2386 7.07261 59.9478 6.95651 61.8792C6.93607 62.2187 7.02911 62.2286 6.97063 62.1757C7.00873 62.1886 7.11796 62.2144 7.3519 62.1898C8.12903 62.1081 9.48836 61.5726 11.5105 60.4247C12.546 59.837 13.4505 59.4044 14.2147 59.1609C14.9381 58.9306 15.7198 58.8095 16.3752 59.0762C17.164 59.3991 17.4539 60.128 17.4767 60.8413C17.498 61.5164 17.304 62.33 16.9754 63.2207C16.6693 64.0506 16.46 64.7401 16.347 65.2965C16.2318 65.8645 16.2245 66.2361 16.2623 66.4544C16.2966 66.6522 16.3443 66.6214 16.2834 66.5885C16.264 66.5781 16.3602 66.6316 16.7071 66.5532C17.8352 66.297 18.9056 66.5071 19.6725 67.3723C20.365 68.1558 20.6815 69.34 20.781 70.7189C20.8085 71.0999 20.8623 71.3392 20.9081 71.4815C21.0747 71.3892 21.3434 71.2102 21.7059 70.846C22.1626 70.3871 22.7124 69.7274 23.351 68.855C24.0205 67.9408 24.6536 67.2239 25.2503 66.758C25.8157 66.3172 26.5649 65.9385 27.3543 66.1861C28.1387 66.4329 28.5442 67.1678 28.7664 67.8524C29.0014 68.5775 29.1278 69.535 29.1759 70.6766C29.2217 71.7615 29.3138 72.6477 29.4372 73.3454C29.5629 74.0555 29.7139 74.5155 29.8608 74.7787C29.9102 74.867 29.9554 74.9137 29.9808 74.9411C30.0364 74.9203 30.1503 74.8698 30.3268 74.7222C31.9182 73.3909 33.38 72.324 34.7114 71.538C35.9513 70.806 37.1078 70.0086 38.171 69.1444C38.5876 68.8064 39.0785 68.6054 39.6255 68.6008C40.1574 68.5963 40.6648 68.7779 41.1294 69.0527C42.0361 69.5893 42.9598 70.5936 43.9042 71.9404C44.3453 72.5696 44.7319 73.0352 45.0692 73.3525C45.4131 73.6758 45.6519 73.7969 45.7823 73.8326C45.8651 73.8548 45.8899 73.8479 45.9305 73.8185C46.0136 73.7581 46.1653 73.5834 46.34 73.176C46.7995 72.105 47.4487 71.2531 48.3523 70.7966C49.276 70.3302 50.306 70.3598 51.3459 70.726C51.5117 70.7842 51.6114 70.7958 51.6637 70.7966H51.6919C51.7116 70.7668 51.7441 70.697 51.7766 70.5565C51.9215 69.9297 51.8368 68.6791 51.353 66.6591C51.1042 65.62 50.9561 64.7202 50.9364 63.9762C50.9176 63.262 51.011 62.5478 51.3812 62.0063C51.8167 61.3696 52.4979 61.1559 53.1887 61.2367C53.8156 61.3102 54.493 61.6216 55.1869 62.0486C56.4583 62.8311 57.5485 63.3452 58.4629 63.6161C59.3796 63.8875 60.065 63.8997 60.567 63.7573C61.0502 63.6201 61.2869 63.3803 61.4142 63.0512C61.5638 62.6628 61.6058 62.0261 61.386 61.0531C60.8966 58.8867 60.951 57.0047 61.965 55.7365C62.9485 54.5087 64.778 53.8865 67.0909 53.6325C68.1562 53.5156 68.7052 53.2526 68.9549 53.0041C69.138 52.8216 69.27 52.5427 69.1243 51.9521C68.7872 50.5882 67.7583 49.0531 65.8765 47.3557C65.3493 46.8801 64.9201 46.3883 64.655 45.8801C64.3846 45.3607 64.2624 44.7703 64.4432 44.1714C64.6206 43.5851 65.045 43.1489 65.5376 42.8299C66.0292 42.5119 66.6585 42.2664 67.3804 42.0674C68.7069 41.7015 69.3717 41.3103 69.6256 41.0154C69.7249 40.8995 69.7251 40.8312 69.7245 40.7965C69.7226 40.7401 69.6972 40.6029 69.5338 40.3729C69.0468 39.6869 68.6724 38.9593 68.6654 38.2547C68.6621 37.87 68.7679 37.4859 69.0184 37.1603C69.2611 36.8459 69.593 36.6461 69.9292 36.5178C69.9622 36.5053 69.9868 36.4856 70.0069 36.4755C69.9956 36.4309 69.9828 36.3589 69.9363 36.2636C69.8546 36.0965 69.7144 35.884 69.5056 35.6211C68.4591 34.3031 67.9185 32.8735 67.9734 31.3566C68.0196 30.0845 68.0893 28.7615 68.1853 27.3886C68.2775 26.0689 68.2764 24.7268 68.1782 23.3641C68.141 22.8498 67.9635 22.454 67.6698 22.1356C67.3652 21.8061 66.8819 21.5085 66.1518 21.2812C64.3782 20.7304 62.9738 19.9082 62.0638 18.7606C61.4335 17.9666 60.5643 17.3865 59.4161 17.0308C58.9172 16.8766 58.4861 16.5868 58.1735 16.1624C57.8691 15.7489 57.707 15.2521 57.6369 14.7291C57.4996 13.7049 57.6994 12.4031 58.1382 10.8952C58.3402 10.2003 58.438 9.66262 58.4559 9.26425C58.474 8.85018 58.4017 8.6863 58.3782 8.64999C58.378 8.64988 58.3505 8.63454 58.2723 8.6288C58.0983 8.6163 57.7823 8.65224 57.2838 8.84062C56.098 9.28893 54.9726 9.47385 54.0007 9.18658C52.963 8.87981 52.2888 8.09647 51.932 7.05431C51.8296 6.75583 51.7347 6.68512 51.7272 6.6801H51.7131C51.6918 6.67856 51.6347 6.67876 51.5366 6.70835C51.329 6.77095 51.0175 6.93668 50.5905 7.27319C50.1711 7.60381 49.681 8.068 49.1219 8.67823C47.9474 9.96034 46.8806 10.8893 45.9376 11.333C45.4579 11.5582 44.9289 11.6938 44.3984 11.6154C43.8366 11.5322 43.39 11.2253 43.071 10.7893C42.3443 9.79353 41.5138 8.98547 40.5857 8.36051C39.5703 7.67711 38.486 6.97375 37.345 6.24941C36.3618 5.62581 35.4043 5.42101 34.436 5.5716C33.5955 5.70243 32.7338 6.30672 31.9013 7.70388C31.605 8.20152 31.1779 8.63805 30.588 8.81944C29.9926 9.00153 29.4024 8.86949 28.8865 8.60762C27.9073 8.10988 26.8799 6.98191 25.801 5.43745C24.75 3.93277 23.8363 2.92775 23.0686 2.35907C22.2974 1.78801 21.8209 1.75415 21.5294 1.85071Z" fill="#30DBFE"/>
<circle cx="35.9293" cy="37.883" r="19.7681" fill="white"/>
<path d="M31.9484 15.1706C32.4736 15.2593 32.9347 15.5349 33.3323 15.8908C34.1067 16.5848 34.7973 17.7469 35.4434 19.2445C35.7434 19.9402 36.0307 20.4472 36.2906 20.7908C36.5571 21.1422 36.7483 21.2552 36.8343 21.285C36.8722 21.298 36.923 21.3149 37.0532 21.2356C37.2175 21.1348 37.4572 20.9052 37.7522 20.4519C39.0961 18.3841 40.6936 16.9876 42.5533 17.31C43.0503 17.3962 43.4942 17.6264 43.8454 17.9948C44.1845 18.3519 44.4028 18.8011 44.5373 19.2869C44.8012 20.2429 44.7861 21.5031 44.5797 22.9866C44.486 23.6592 44.5191 24.0781 44.5868 24.3069C44.6178 24.4117 44.6463 24.4509 44.6503 24.4552H44.6644C44.7319 24.4739 44.9623 24.4936 45.4552 24.3069C45.931 24.1263 46.5472 23.7972 47.305 23.2902C48.1133 22.7493 48.8401 22.3136 49.4797 22.0052C50.1086 21.7021 50.7115 21.4894 51.2519 21.4333C51.8008 21.3767 52.4216 21.4741 52.8758 21.9558C53.3022 22.4081 53.4003 23.0198 53.3912 23.5656C53.3588 25.456 53.0036 27.2783 52.3251 29.0234C52.0755 29.6659 52.1763 29.9806 52.318 30.1672C52.5122 30.4219 52.9976 30.7312 54.0337 30.9368C56.354 31.3962 58.1081 32.3835 58.623 34.1987C58.8343 34.9438 58.8998 35.6785 58.7148 36.3451C58.521 37.0422 58.0774 37.5794 57.451 37.9337C57.3415 37.9956 57.3022 38.0455 57.2886 38.0679C57.2768 38.0873 57.253 38.1281 57.2533 38.2161C57.2552 38.4292 57.3718 38.83 57.7758 39.4659C58.0513 39.8992 58.2482 40.3938 58.2347 40.9203C58.2197 41.4769 57.9721 41.9533 57.5922 42.3183C56.9037 42.9787 55.7281 43.3397 54.3373 43.5539C53.6998 43.652 53.2418 43.7914 52.9393 43.9422C52.6428 44.0907 52.5473 44.2207 52.5157 44.2882C52.4648 44.3973 52.3949 44.8215 53.1723 45.8203C54.8391 47.9611 55.7381 50.0628 55.6435 52.0971C55.5933 53.1723 55.1772 54.1149 54.2314 54.6318C53.3639 55.1052 52.238 55.1048 51.033 54.8648C48.8062 54.4219 47.4275 54.5355 46.6837 54.9354C45.9845 55.3132 45.2574 56.3335 44.6856 58.381C44.3695 59.5129 43.8857 60.4649 43.1464 61.064C42.3592 61.7007 41.4051 61.8427 40.414 61.5935C38.4263 61.0937 36.9389 59.0907 35.7752 56.2204C35.5078 55.5614 35.2581 55.2063 35.0762 55.0413C34.943 54.9209 34.9084 54.942 34.8856 54.9496C34.776 54.9816 34.5249 55.1276 34.1513 55.5921C33.7918 56.0394 33.3886 56.7004 32.944 57.5972C32.4731 58.5471 32.0155 59.348 31.5813 59.9837C31.1546 60.608 30.7126 61.1272 30.2469 61.4664C29.7746 61.8099 29.1617 62.0443 28.5029 61.8477C27.8823 61.6615 27.4688 61.1586 27.1897 60.6474C26.809 59.9511 26.3558 59.5652 25.8552 59.3836C25.3409 59.1975 24.6521 59.1857 23.7371 59.4542C23.1485 59.6264 22.5492 59.6996 22.0002 59.5671C21.3983 59.4216 20.9329 59.0456 20.6728 58.4869C20.4349 57.9752 20.3931 57.3672 20.4398 56.75C20.4875 56.1202 20.6398 55.3937 20.8776 54.5824C21.3216 53.0677 21.4554 51.9937 21.3718 51.2993C21.331 50.9638 21.2411 50.7635 21.16 50.6497C21.0876 50.5487 20.9901 50.4711 20.8352 50.4238C19.4227 49.9921 18.0372 49.3723 16.6836 48.5598C15.4068 47.7933 13.8328 46.92 11.9601 45.9403C11.4194 45.6575 10.8784 45.2412 10.6681 44.613C10.4366 43.9173 10.7057 43.2738 11.0846 42.7984C11.4563 42.3331 12.0208 41.8989 12.7015 41.4852C13.3958 41.0632 14.2724 40.6307 15.3139 40.179C16.299 39.7516 16.968 39.3569 17.3755 39.014C17.7994 38.6573 17.7992 38.4785 17.7992 38.4774C17.7991 38.4731 17.7975 38.4324 17.7427 38.3503C17.6827 38.2613 17.5669 38.1363 17.3614 37.9831C16.9414 37.67 16.2541 37.3273 15.2503 36.9664C14.192 36.5859 13.319 36.2129 12.645 35.8509C12.0001 35.5043 11.4207 35.1089 11.0917 34.6294C10.9154 34.3722 10.7829 34.0414 10.7951 33.6621C10.8076 33.2764 10.9707 32.9554 11.1835 32.7089C11.5707 32.2613 12.1999 31.9625 12.8639 31.7417C14.0659 31.3419 14.7362 30.8866 15.0526 30.4566C15.3224 30.0894 15.4048 29.6478 15.1727 29.0022C14.9855 28.4831 14.879 27.882 15.0879 27.3218C15.3209 26.698 15.8461 26.3667 16.3941 26.2274C16.9145 26.0953 17.5338 26.109 18.1946 26.1992C18.8695 26.2913 19.6631 26.4701 20.5598 26.7358C21.3874 26.9807 21.9374 27.042 22.2685 27.0041C22.4192 26.9866 22.4877 26.9536 22.5085 26.9405C22.5166 26.9352 22.5214 26.9325 22.5297 26.9123C22.5647 26.8254 22.613 26.5358 22.4238 25.9026C22.2428 25.2981 21.8884 24.5071 21.3365 23.5232C20.2019 21.5009 19.5001 19.8458 19.409 18.6585C19.3627 18.051 19.4607 17.3741 19.9667 16.8863C20.4685 16.4031 21.1518 16.3163 21.7601 16.3709C23.7033 16.5455 25.3745 16.5948 26.7801 16.5192C28.1066 16.4477 29.3192 16.0973 30.4234 15.4672C30.8876 15.2023 31.407 15.0798 31.9484 15.1706ZM31.6448 16.9569C31.5669 16.9442 31.4692 16.9499 31.3201 17.0346C29.9633 17.8089 28.4766 18.2406 26.879 18.3267C25.3625 18.4084 23.6 18.3512 21.5977 18.1714C21.2188 18.1373 21.1782 18.2291 21.2235 18.1855C21.2689 18.1399 21.1822 18.1706 21.2094 18.5244C21.2676 19.2733 21.7748 20.6154 22.911 22.6407C23.4937 23.6795 23.9188 24.5963 24.1536 25.3801C24.3791 26.133 24.4771 26.9167 24.2101 27.583C23.9002 28.3524 23.2175 28.7187 22.4803 28.8045C21.7882 28.8848 20.9567 28.7428 20.0444 28.4726C19.1985 28.222 18.5004 28.0609 17.9474 27.9855C17.3824 27.9085 17.0313 27.9297 16.8389 27.9784C16.8165 27.9841 16.7969 27.9877 16.7825 27.9925C16.7841 28.0523 16.7982 28.1772 16.8742 28.3879C17.274 29.498 17.1932 30.5885 16.5071 31.5228C15.8663 32.3951 14.7807 33.0099 13.4358 33.4574C13.1022 33.5683 12.8815 33.6687 12.7438 33.7468C12.8839 33.8688 13.1137 34.0479 13.4993 34.2552C14.064 34.5587 14.8475 34.8991 15.8646 35.2648C16.9368 35.6505 17.8142 36.068 18.4417 36.5357C19.0536 36.9922 19.5875 37.6171 19.6067 38.435C19.6256 39.2494 19.1266 39.9047 18.5405 40.3978C17.9386 40.9044 17.0862 41.3817 16.034 41.8382C15.0367 42.2707 14.24 42.6671 13.6405 43.0314C13.0292 43.403 12.6737 43.7061 12.4967 43.9281C12.4461 43.9916 12.4265 44.0405 12.412 44.0693C12.4575 44.1185 12.566 44.215 12.8003 44.3376C14.6923 45.3274 16.2995 46.2164 17.6156 47.0065C18.8541 47.7499 20.1028 48.3156 21.3647 48.701C21.8788 48.858 22.313 49.1571 22.6286 49.5977C22.9346 50.0254 23.0993 50.5386 23.1652 51.0804C23.2938 52.1436 23.073 53.5021 22.6074 55.0908C22.3904 55.8313 22.2751 56.4254 22.2402 56.8841C22.2045 57.356 22.2654 57.6114 22.3179 57.7243C22.3475 57.7872 22.3635 57.8016 22.4238 57.8161C22.5373 57.8432 22.7854 57.847 23.2287 57.7173C24.3844 57.3783 25.4852 57.3326 26.4695 57.689C27.4678 58.0512 28.2331 58.7876 28.7783 59.786C28.9558 60.1101 29.0606 60.1293 29.0254 60.1178C28.9433 60.0933 28.9644 60.1617 29.1807 60.0049C29.4054 59.8413 29.7135 59.5134 30.0915 58.9599C30.4624 58.4167 30.8718 57.6967 31.3201 56.7923C31.794 55.8364 32.2663 55.0512 32.7392 54.4624C33.1983 53.8911 33.74 53.4063 34.3773 53.2197C35.1003 53.008 35.7679 53.227 36.2906 53.6998C36.769 54.1337 37.1419 54.7866 37.4486 55.5426C38.5835 58.3421 39.7827 59.5648 40.8588 59.8354C41.3962 59.97 41.7386 59.878 42.0097 59.6589C42.3298 59.3995 42.6707 58.8641 42.9417 57.8938C43.5439 55.7376 44.4452 54.0907 45.8223 53.3468C47.1549 52.6274 49.0818 52.6342 51.386 53.0926C52.4502 53.3045 53.0554 53.2111 53.363 53.0432C53.591 52.9186 53.8053 52.6705 53.836 52.0124C53.9024 50.5788 53.2755 48.8931 51.7461 46.9288C50.9269 45.876 50.3519 44.6539 50.8777 43.5256C51.1353 42.9739 51.6008 42.5844 52.1344 42.3183C52.6653 42.0537 53.3221 41.8814 54.062 41.7676C55.4225 41.558 56.0925 41.2522 56.3425 41.0121C56.4309 40.9268 56.4269 40.8848 56.4272 40.8709C56.4275 40.8245 56.4085 40.6889 56.2507 40.4402C55.7804 39.7004 55.4485 38.9397 55.4458 38.2161C55.4439 37.3961 55.8661 36.752 56.5614 36.3592C56.803 36.2223 56.9151 36.059 56.9709 35.8579C57.0352 35.6248 57.045 35.2539 56.8862 34.6929C56.6588 33.8915 55.8117 33.1298 53.6877 32.7089C52.5045 32.4747 51.4756 32.0415 50.8777 31.2545C50.2303 30.3996 50.256 29.3662 50.6447 28.3667C51.2443 26.8239 51.562 25.2159 51.5908 23.5373C51.5935 23.378 51.5686 23.2845 51.5555 23.2337C51.528 23.2327 51.488 23.2283 51.4354 23.2337C51.1958 23.2589 50.8171 23.3729 50.2705 23.6362C49.7331 23.8952 49.0804 24.2748 48.3147 24.7871C47.4981 25.3335 46.7528 25.7457 46.0977 25.9944C45.4655 26.2342 44.79 26.3745 44.1702 26.1992C43.4667 25.999 43.0392 25.461 42.8499 24.8224C42.6746 24.2306 42.6858 23.5122 42.7934 22.7395C42.9888 21.3356 42.9579 20.3723 42.7934 19.7741C42.7136 19.4851 42.6132 19.3226 42.5321 19.2375C42.4611 19.1636 42.3752 19.1122 42.2427 19.0892C41.5803 18.9756 40.5844 19.4115 39.2702 21.4333C38.9028 21.9986 38.4843 22.482 37.9922 22.7819C37.4653 23.1026 36.8597 23.2037 36.2483 22.9937C35.6846 22.8 35.2245 22.3787 34.8503 21.8852C34.4702 21.3834 34.1163 20.7344 33.7842 19.9647C33.1636 18.526 32.5985 17.6562 32.1249 17.2323C31.8998 17.0312 31.7383 16.9726 31.6448 16.9569Z" fill="#30DBFE"/>
</svg>
